<?xml version="1.0" standalone="no"?>
<!DOCTYPE svg PUBLIC "-//W3C//DTD SVG 20010904//EN"
 "http://www.w3.org/TR/2001/REC-SVG-20010904/DTD/svg10.dtd">
<svg version="1.0" xmlns="http://www.w3.org/2000/svg"
 width="310.000000pt" height="310.000000pt" viewBox="0 0 310.000000 310.000000"
 preserveAspectRatio="xMidYMid meet">
<metadata>
Created by potrace 1.11, written by Peter Selinger 2001-2013
</metadata>
<g transform="translate(0.000000,310.000000) scale(0.100000,-0.100000)"
fill="#000000" stroke="none">
<path d="M908 2821 c-37 -24 -48 -37 -54 -66 -3 -20 -5 -38 -3 -39 2 -2 37 2
77 9 66 11 77 16 105 51 18 21 31 41 30 43 -2 5 -88 30 -104 31 -3 0 -26 -13
-51 -29z"/>
<path d="M1075 2798 c-28 -89 -28 -92 6 -110 17 -10 40 -18 51 -18 17 0 19 4
13 33 -9 41 -33 93 -50 107 -9 8 -14 5 -20 -12z"/>
<path d="M865 2659 c-4 -6 -13 -8 -21 -5 -22 8 -24 -7 -4 -32 l18 -22 21 28
c19 27 19 42 0 42 -4 0 -11 -5 -14 -11z"/>
<path d="M975 2586 l-40 -12 33 -5 c20 -4 36 -1 44 8 16 20 8 22 -37 9z"/>
<path d="M875 2580 c3 -5 16 -10 28 -9 21 0 21 1 2 9 -28 12 -37 12 -30 0z"/>
<path d="M1409 2556 c-25 -7 -76 -16 -113 -19 -87 -8 -136 -33 -151 -76 -6
-19 -24 -44 -40 -57 l-29 -23 33 -101 c18 -56 30 -104 27 -107 -6 -6 -237 15
-245 22 -2 3 14 31 35 62 83 122 78 105 40 142 l-33 32 -67 -89 c-62 -83 -69
-90 -108 -95 -24 -3 -44 -5 -45 -3 -1 1 22 36 52 78 30 42 55 79 55 83 0 14
-97 -9 -133 -31 l-37 -24 28 -58 c16 -31 34 -89 41 -127 14 -85 25 -105 43
-87 6 6 36 12 65 12 41 0 54 -4 63 -19 17 -32 13 -43 -12 -30 -18 10 -20 9
-15 -6 4 -9 7 -19 7 -21 0 -2 10 -2 23 1 30 8 59 -21 36 -36 -11 -7 -11 -9 4
-9 16 0 18 7 15 56 l-3 55 93 38 c50 21 92 36 92 32 0 -3 -47 -54 -103 -113
l-103 -107 -44 6 -45 5 30 -26 c24 -20 26 -25 12 -26 -10 0 -27 5 -38 10 -28
16 -23 -2 11 -35 l30 -29 24 23 c13 13 27 35 31 49 l7 27 17 -33 17 -32 105
92 c58 51 114 100 124 108 18 13 19 13 8 0 -9 -13 -9 -24 2 -55 8 -22 14 -48
15 -57 0 -9 -34 -55 -76 -102 l-77 -86 -51 43 -50 42 25 -45 c15 -25 52 -96
84 -158 l57 -113 43 58 c30 40 51 86 70 148 22 71 30 86 36 70 5 -11 18 -41
28 -67 19 -46 21 -47 46 -36 34 15 40 6 20 -31 -17 -35 -18 -34 36 -107 l38
-52 -105 -67 c-70 -45 -101 -70 -93 -76 7 -4 43 -10 81 -14 37 -4 66 -10 63
-15 -2 -4 -32 -13 -65 -20 -59 -13 -60 -13 -60 -47 0 -30 -3 -34 -17 -27 -10
5 -56 9 -102 10 l-84 0 6 -110 c7 -106 6 -110 -18 -142 -22 -29 -29 -32 -51
-24 -37 14 -39 14 -68 -30 -14 -22 -30 -40 -34 -40 -5 0 -16 17 -26 38 -34 72
-45 83 -66 72 -43 -23 -13 -102 50 -135 16 -8 47 -15 69 -15 30 0 50 -8 88
-38 26 -21 54 -51 62 -65 14 -27 35 -32 78 -21 21 6 22 10 17 63 -5 46 0 84
29 197 20 76 42 157 50 179 l15 40 25 -57 c45 -101 101 -160 284 -301 7 -5 -9
39 -37 99 -27 60 -50 114 -50 119 0 6 41 28 90 49 50 22 90 43 90 48 0 4 -16
46 -35 92 -19 47 -35 90 -35 96 0 7 16 31 35 54 34 42 35 45 35 132 l0 89 -54
76 c-51 72 -56 84 -95 245 -46 183 -67 312 -54 324 14 13 156 73 203 85 51 13
52 18 29 128 l-12 57 -121 -1 c-66 0 -142 -6 -167 -13z m68 -158 c-2 -13 -4
-5 -4 17 -1 22 1 32 4 23 2 -10 2 -28 0 -40z m-87 -172 c0 -2 -8 -10 -17 -17
-16 -13 -17 -12 -4 4 13 16 21 21 21 13z m-3 -388 c-3 -8 -6 -5 -6 6 -1 11 2
17 5 13 3 -3 4 -12 1 -19z m-212 -851 c-9 -4 -28 -7 -43 -5 -21 2 -28 9 -30
31 l-3 27 45 -22 c36 -17 43 -24 31 -31z m-39 -48 l29 -32 -42 28 c-46 30 -51
35 -30 35 7 0 26 -14 43 -31z"/>
<path d="M940 2473 c0 -25 0 -26 20 -8 11 10 20 22 20 27 0 4 -9 8 -20 8 -15
0 -20 -7 -20 -27z"/>
<path d="M521 2252 l-34 -28 48 -61 c28 -37 60 -66 78 -72 39 -14 37 -15 37
12 1 12 9 46 19 75 20 57 16 62 -22 32 l-25 -20 -29 45 c-15 25 -30 45 -33 45
-3 0 -21 -13 -39 -28z"/>
<path d="M629 1933 c37 -74 105 -114 188 -112 l48 1 -48 15 c-44 13 -95 53
-139 111 -10 12 -29 22 -43 22 l-25 0 19 -37z"/>
<path d="M1044 1424 c3 -9 6 -24 6 -35 0 -16 7 -19 44 -19 24 0 58 3 76 7 32
6 30 7 -46 34 -94 34 -88 33 -80 13z"/>
<path d="M1235 1338 c-4 -14 -5 -34 -3 -43 3 -16 4 -16 20 1 14 16 15 22 3 44
l-13 25 -7 -27z"/>
<path d="M1651 868 l-43 -10 28 -29 c15 -16 31 -29 34 -29 6 0 40 65 40 75 0
6 -3 6 -59 -7z"/>
<path d="M1909 793 c-13 -21 -36 -60 -50 -88 l-27 -49 152 -103 c209 -141 208
-141 197 -179 -5 -18 -30 -57 -55 -88 -25 -31 -46 -62 -46 -69 0 -7 11 -20 25
-29 19 -14 35 -17 83 -12 59 7 61 8 141 89 62 63 81 89 81 110 0 31 -37 98
-50 90 -12 -7 -212 161 -361 303 l-67 63 -23 -38z"/>
</g>
</svg>
